<?xml version="1.0" encoding="utf-8"?>
<!-- Generator: Adobe Illustrator 23.0.1, SVG Export Plug-In . SVG Version: 6.00 Build 0)  -->
<svg version="1.1" id="Слой_1" xmlns="http://www.w3.org/2000/svg" xmlns:xlink="http://www.w3.org/1999/xlink" x="0px" y="0px"
	 viewBox="0 0 512 512" style="enable-background:new 0 0 512 512;" xml:space="preserve">
<style type="text/css">
</style>
<path class="st0" d="M290,384c-2,0-4.1-0.8-5.7-2.3c-3.1-3.1-3.1-8.2,0-11.3l5.7-5.7c3.1-3.1,8.2-3.1,11.3,0c3.1,3.1,3.1,8.2,0,11.3
	l-5.7,5.7C294.1,383.2,292,384,290,384z"/>
<path class="st0" d="M295.7,378.4c-0.7,0-1.5-0.1-2.2-0.3c-4.3-1.2-6.7-5.6-5.5-9.9l9-31.6c1.2-4.3,5.6-6.7,9.9-5.5
	c4.2,1.2,6.7,5.6,5.5,9.9l-9,31.6C302.4,376.1,299.1,378.4,295.7,378.4z"/>
<path class="st0" d="M295.6,378.4c-3.5,0-6.7-2.3-7.7-5.8c-1.2-4.3,1.3-8.7,5.5-9.9l31.6-9c4.3-1.2,8.7,1.3,9.9,5.5
	c1.2,4.3-1.3,8.7-5.5,9.9l-31.6,9C297.1,378.3,296.4,378.4,295.6,378.4z"/>
<path class="st0" d="M335.3,361.4c-2.1,0-4.1-0.8-5.7-2.3L307,336.4c-3.1-3.1-3.1-8.2,0-11.3c3.1-3.1,8.2-3.1,11.3,0l22.6,22.6
	c3.1,3.1,3.1,8.2,0,11.3C339.4,360.6,337.3,361.4,335.3,361.4z"/>
<path class="st0" d="M429.1,267.6c-2,0-4.1-0.8-5.7-2.3l-22.6-22.6c-3.1-3.1-3.1-8.2,0-11.3c3.1-3.1,8.2-3.1,11.3,0l22.6,22.6
	c3.1,3.1,3.1,8.2,0,11.3C433.2,266.8,431.1,267.6,429.1,267.6z"/>
<path class="st0" d="M304.6,346.8c-2,0-4.1-0.8-5.7-2.3c-3.1-3.1-3.1-8.2,0-11.3l170.7-170.7c3.1-3.1,8.2-3.1,11.3,0
	c3.1,3.1,3.1,8.2,0,11.3L310.3,344.4C308.7,346,306.7,346.8,304.6,346.8z"/>
<path class="st0" d="M327.3,369.4c-2.1,0-4.1-0.8-5.7-2.3c-3.1-3.1-3.1-8.2,0-11.3l170.7-170.7c3.1-3.1,8.2-3.1,11.3,0
	c3.1,3.1,3.1,8.2,0,11.3L332.9,367.1C331.4,368.6,329.3,369.4,327.3,369.4z"/>
<path class="st0" d="M497.9,198.7c-2.1,0-4.1-0.8-5.7-2.3c-3.1-3.1-3.1-8.2,0-11.3c3.1-3.1,3.1-8.2,0-11.3c-3.1-3.1-8.2-3.1-11.3,0
	c-3.1,3.1-8.2,3.1-11.3,0c-3.1-3.1-3.1-8.2,0-11.3c9.4-9.3,24.6-9.3,33.9,0c9.4,9.4,9.4,24.6,0,33.9
	C502,197.9,500,198.7,497.9,198.7z"/>
<path class="st0" d="M497.9,232.7c-2.1,0-4.1-0.8-5.7-2.3c-3.1-3.1-3.1-8.2,0-11.3c1.5-1.5,2.3-3.5,2.3-5.7c0-2.1-0.8-4.1-2.3-5.6
	c-3.1-3.1-3.1-8.2,0-11.3c3.1-3.1,8.2-3.1,11.3,0c4.5,4.5,7,10.6,7,17c0,6.4-2.5,12.4-7,17C502,231.9,500,232.7,497.9,232.7z"/>
<path class="st0" d="M443.7,286.9c-2,0-4.1-0.8-5.7-2.3c-3.1-3.1-3.1-8.2,0-11.3l54.2-54.2c3.1-3.1,8.2-3.1,11.3,0
	c3.1,3.1,3.1,8.2,0,11.3l-54.2,54.2C447.8,286.1,445.8,286.9,443.7,286.9z"/>
<path class="st0" d="M497.9,210c-2.1,0-4.1-0.8-5.7-2.3L464,179.4c-3.1-3.1-3.1-8.2,0-11.3c3.1-3.1,8.2-3.1,11.3,0l28.3,28.3
	c3.1,3.1,3.1,8.2,0,11.3C502,209.3,500,210,497.9,210z"/>
<path class="st0" d="M370,488H34c-4.4,0-8-3.6-8-8V8c0-4.4,3.6-8,8-8h288c2.1,0,4.2,0.8,5.7,2.3l48,48c1.5,1.5,2.3,3.5,2.3,5.7
	v217.4c0,4.4-3.6,8-8,8s-8-3.6-8-8V59.3L318.7,16H42v456h320V318.7c0-4.4,3.6-8,8-8s8,3.6,8,8V480C378,484.4,374.4,488,370,488z"/>
<path class="st0" d="M322,64c-4.4,0-8-3.6-8-8V8c0-4.4,3.6-8,8-8s8,3.6,8,8v48C330,60.4,326.4,64,322,64z"/>
<path class="st0" d="M370,64h-48c-4.4,0-8-3.6-8-8s3.6-8,8-8h48c4.4,0,8,3.6,8,8S374.4,64,370,64z"/>
<path class="st0" d="M306,224.1H98c-4.4,0-8-3.6-8-8c0-4.4,3.6-8,8-8h208c4.4,0,8,3.6,8,8C314,220.5,310.4,224.1,306,224.1z"/>
<path class="st0" d="M306,264H98c-4.4,0-8-3.6-8-8c0-4.4,3.6-8,8-8h208c4.4,0,8,3.6,8,8C314,260.5,310.4,264,306,264z"/>
<path class="st0" d="M306,304H98c-4.4,0-8-3.6-8-8c0-4.4,3.6-8,8-8h208c4.4,0,8,3.6,8,8C314,300.5,310.4,304,306,304z"/>
<path class="st0" d="M202,344H98c-4.4,0-8-3.6-8-8c0-4.4,3.6-8,8-8h104c4.4,0,8,3.6,8,8C210,340.5,206.4,344,202,344z"/>
<path class="st0" d="M306,424h-56c-4.4,0-8-3.6-8-8c0-4.4,3.6-8,8-8h56c4.4,0,8,3.6,8,8C314,420.4,310.4,424,306,424z"/>
<path class="st0" d="M290,440c-4.4,0-8-3.6-8-8v-32c0-4.4,3.6-8,8-8s8,3.6,8,8v32C298,436.4,294.4,440,290,440z"/>
<path class="st0" d="M290,440c-2.4,0-4.8-1.1-6.4-3.2l-24-32c-2.7-3.5-1.9-8.5,1.6-11.2c3.5-2.6,8.5-1.9,11.2,1.6l24,32
	c2.7,3.5,1.9,8.5-1.6,11.2C293.4,439.5,291.7,440,290,440z"/>
<path class="st0" d="M266,440c-4.4,0-8-3.6-8-8v-32c0-4.4,3.6-8,8-8s8,3.6,8,8v32C274,436.4,270.4,440,266,440z"/>
<path class="st0" d="M346,512c-4.4,0-8-3.6-8-8v-24c0-4.4,3.6-8,8-8s8,3.6,8,8v24C354,508.4,350.4,512,346,512z"/>
<path class="st0" d="M346,512H10c-4.4,0-8-3.6-8-8s3.6-8,8-8h336c4.4,0,8,3.6,8,8S350.4,512,346,512z"/>
<path class="st0" d="M10,512c-4.4,0-8-3.6-8-8V32c0-4.4,3.6-8,8-8s8,3.6,8,8v472C18,508.4,14.4,512,10,512z"/>
<path class="st0" d="M34,40H10c-4.4,0-8-3.6-8-8s3.6-8,8-8h24c4.4,0,8,3.6,8,8S38.4,40,34,40z"/>
<path class="st0" d="M154,168.1c-25.7,0-49.2-13.4-62.8-35.8c-1.5-2.5-1.5-5.8,0-8.3c13.6-22.4,37.1-35.8,62.8-35.8
	c25.7,0,49.2,13.4,62.8,35.8c1.6,2.5,1.6,5.8,0,8.3C203.2,154.7,179.7,168.1,154,168.1z M107.6,128.1c10.9,15.1,27.9,24,46.4,24
	c18.5,0,35.5-8.9,46.4-24c-10.9-15.1-28-24-46.4-24C135.5,104.1,118.5,113,107.6,128.1z"/>
<path class="st0" d="M154,152c-13.2,0-24-10.8-24-24c0-13.2,10.8-24,24-24s24,10.8,24,24C178,141.2,167.2,152,154,152z M154,120
	c-4.4,0-8,3.6-8,8c0,4.4,3.6,8,8,8s8-3.6,8-8C162,123.6,158.4,120,154,120z"/>
</svg>
